<svg height="96" width="96" xmlns="http://www.w3.org/2000/svg" xmlns:xlink="http://www.w3.org/1999/xlink"><linearGradient id="a"><stop offset="0" stop-color="#fefefe"/><stop offset="1" stop-color="#fefefe" stop-opacity="0"/></linearGradient><linearGradient id="b" gradientUnits="userSpaceOnUse" x1="36.357143" x2="36.357143" xlink:href="#a" y1="6" y2="63.893143"/><linearGradient id="c" gradientUnits="userSpaceOnUse" x1="48" x2="48" xlink:href="#a" y1="20.220806" y2="138.66119"/><linearGradient id="d" gradientTransform="matrix(1.0058652 0 0 .994169 100 0)" gradientUnits="userSpaceOnUse" x1="45.447727" x2="45.447727" y1="92.539597" y2="7.01654"><stop offset="0"/><stop offset="1" stop-opacity=".588235"/></linearGradient><linearGradient id="e" gradientTransform="matrix(1.0238095 0 0 1.0119048 -1.142857 -98.071429)" gradientUnits="userSpaceOnUse" x1="32.251034" x2="32.251034" xlink:href="#d" y1="6.131708" y2="90.238609"/><linearGradient id="f" gradientTransform="translate(0 -97)" gradientUnits="userSpaceOnUse" x1="32.251034" x2="32.251034" xlink:href="#d" y1="6.131708" y2="90.238609"/><clipPath id="g"><rect height="84" rx="6" width="84" x="6" y="6"/></clipPath><filter id="h" color-interpolation-filters="sRGB" height="1.384" width="1.384" x="-.192" y="-.192"><feGaussianBlur stdDeviation="5.28"/></filter><linearGradient id="i" gradientUnits="userSpaceOnUse" x1="48" x2="48" y1="-6" y2="-90.012283"><stop offset="0" stop-color="#f0f0f0"/><stop offset=".2814" stop-color="#e1e1e1"/><stop offset=".75150001" stop-color="#c0c0c0"/><stop offset="1" stop-color="#b2b2b2"/></linearGradient><radialGradient id="j" cx="48" cy="90.171875" gradientTransform="matrix(1.1573129 0 0 .99590774 -7.551021 .197132)" gradientUnits="userSpaceOnUse" r="42" xlink:href="#a"/><g transform="translate(.406776 -.279661)"><g fill="url(#e)"><path d="m12-95.03125c-5.5110903 0-10.03125 4.52016-10.03125 10.03125v71c0 5.5110902 4.5201598 10.03125 10.03125 10.03125h72c5.51109 0 10.03125-4.5201597 10.03125-10.03125v-71c0-5.51109-4.52016-10.03125-10.03125-10.03125z" opacity=".08" transform="scale(1 -1)"/><path d="m12-94.03125c-4.971633 0-9.03125 4.059617-9.03125 9.03125v71c0 4.9716329 4.0596171 9.03125 9.03125 9.03125h72c4.971633 0 9.03125-4.059617 9.03125-9.03125v-71c0-4.971633-4.059617-9.03125-9.03125-9.03125z" opacity=".1" transform="scale(1 -1)"/><path d="m12-93c-4.4091333 0-8 3.590867-8 8v71c0 4.4091333 3.5908667 8 8 8h72c4.409133 0 8-3.5908667 8-8v-71c0-4.409133-3.590867-8-8-8z" opacity=".2" transform="scale(1 -1)"/><rect height="85" opacity=".3" rx="7" transform="scale(1 -1)" width="86" x="5" y="-92"/></g><rect fill="url(#f)" height="84" opacity=".45" rx="6" transform="scale(1 -1)" width="84" x="6" y="-91"/></g><g transform="translate(.406776 -.279661)"><rect fill="url(#i)" height="84" rx="6" transform="scale(1 -1)" width="84" x="6" y="-90"/><path d="m12 6c-3.324 0-6 2.676-6 6v2 68 2c0 .334721.04135.6507.09375.96875.0487.295596.09704.596915.1875.875.00988.03038.020892.0636.03125.09375.098865.287771.2348802.547452.375.8125.1445918.273507.3156161.535615.5.78125s.3737765.473472.59375.6875c.439947.428056.94291.814526 1.5 1.09375.278545.139612.5734731.246947.875.34375-.2562018-.100222-.4867109-.236272-.71875-.375-.00741-.0044-.023866.0045-.03125 0-.031933-.0193-.062293-.04251-.09375-.0625-.120395-.0767-.2310226-.163513-.34375-.25-.1061728-.0808-.2132809-.161112-.3125-.25-.1779299-.161433-.3474596-.345388-.5-.53125-.1075789-.130255-.2183939-.265285-.3125-.40625-.025089-.03838-.038446-.08587-.0625-.125-.064763-.103032-.1302275-.204517-.1875-.3125-.1010083-.194706-.2056748-.415701-.28125-.625-.00796-.02181-.023589-.04055-.03125-.0625-.0318251-.09195-.0358045-.186831-.0625-.28125-.0303323-.106618-.0703894-.203031-.09375-.3125-.0728786-.341512-.125-.698205-.125-1.0625v-2-68-2c0-2.781848 2.2181517-5 5-5h2 68 2c2.781848 0 5 2.218152 5 5v2 68 2c0 .364295-.05212.720988-.125 1.0625-.04415.206893-.08838.397658-.15625.59375-.0077.02195-.0233.04069-.03125.0625-.06274.173739-.138383.367449-.21875.53125-.04158.0828-.07904.169954-.125.25-.0546.09721-.126774.18835-.1875.28125-.09411.140965-.204921.275995-.3125.40625-.143174.17445-.303141.346998-.46875.5-.01117.0102-.01998.02115-.03125.03125-.138386.125556-.285091.234436-.4375.34375-.102571.07315-.204318.153364-.3125.21875-.0074.0045-.02384-.0044-.03125 0-.232039.138728-.462548.274778-.71875.375.301527-.0968.596455-.204138.875-.34375.55709-.279224 1.060053-.665694 1.5-1.09375.219973-.214028.409366-.441865.59375-.6875s.355408-.507743.5-.78125c.14012-.265048.276135-.524729.375-.8125.01041-.03078.02133-.06274.03125-.09375.09046-.278085.1388-.579404.1875-.875.0524-.31805.09375-.634029.09375-.96875v-2-68-2c0-3.324-2.676-6-6-6z" fill="url(#b)" opacity=".5"/><path d="m12 90c-3.324 0-6-2.676-6-6v-2-68-2c0-.334721.04135-.6507.09375-.96875.0487-.295596.09704-.596915.1875-.875.00988-.03038.020892-.0636.03125-.09375.098865-.287771.2348802-.547452.375-.8125.1445918-.273507.3156161-.535615.5-.78125s.3737765-.473472.59375-.6875c.439947-.428056.94291-.814526 1.5-1.09375.278545-.139612.5734731-.246947.875-.34375-.2562018.100222-.4867109.236272-.71875.375-.00741.0044-.023866-.0045-.03125 0-.031933.0193-.062293.04251-.09375.0625-.120395.0767-.2310226.163513-.34375.25-.1061728.0808-.2132809.161112-.3125.25-.1779299.161433-.3474596.345388-.5.53125-.1075789.130255-.2183939.265285-.3125.40625-.025089.03838-.038446.08587-.0625.125-.064763.103032-.1302275.204517-.1875.3125-.1010083.194706-.2056748.415701-.28125.625-.00796.02181-.023589.04055-.03125.0625-.0318251.09195-.0358045.186831-.0625.28125-.0303323.106618-.0703894.203031-.09375.3125-.0728786.341512-.125.698205-.125 1.0625v2 68 2c0 2.781848 2.2181517 5 5 5h2 68 2c2.781848 0 5-2.218152 5-5v-2-68-2c0-.364295-.05212-.720988-.125-1.0625-.04415-.206893-.08838-.397658-.15625-.59375-.0077-.02195-.0233-.04069-.03125-.0625-.06274-.173739-.138383-.367449-.21875-.53125-.04158-.0828-.07904-.169954-.125-.25-.0546-.09721-.126774-.18835-.1875-.28125-.09411-.140965-.204921-.275995-.3125-.40625-.143174-.17445-.303141-.346998-.46875-.5-.01117-.0102-.01998-.02115-.03125-.03125-.138386-.125556-.285091-.234436-.4375-.34375-.102571-.07315-.204318-.153364-.3125-.21875-.0074-.0045-.02384.0044-.03125 0-.232039-.138728-.462548-.274778-.71875-.375.301527.0968.596455.204138.875.34375.55709.279224 1.060053.665694 1.5 1.09375.219973.214028.409366.441865.59375.6875s.355408.507743.5.78125c.14012.265048.276135.524729.375.8125.01041.03078.02133.06274.03125.09375.09046.278085.1388.579404.1875.875.0524.31805.09375.634029.09375.96875v2 68 2c0 3.324-2.676 6-6 6z" fill="url(#j)" opacity=".25"/></g><rect height="66" rx="12" style="opacity:.1;stroke:#fefefe;stroke-width:.5;stroke-linecap:round;clip-path:url(#g);fill:url(#c);filter:url(#h)" transform="translate(.406776 -.279661)" width="66" x="15" y="15"/><g stroke-width="1.64681"><path d="m50.1093 15.382175c-14.597282 0-26.348885 11.751603-26.348885 26.348886 0 8.141009 3.658618 15.392502 9.4241 20.218396l37.143181-37.143181c-4.825893-5.765482-12.077387-9.424101-20.218396-9.424101z" opacity=".2"/><path d="m50.1093 13.73537c-14.597282 0-26.348885 11.751603-26.348885 26.348886 0 8.141008 3.658618 15.392502 9.4241 20.218396l37.143181-37.143182c-4.825893-5.765481-12.077387-9.4241-20.218396-9.4241z" fill="#4f4f4f"/><path d="m50.1093 13.73537c-14.597282 0-26.348885 11.751603-26.348885 26.348886 0 .35649.01499.708467.02895 1.061417.31234-14.32198 11.920319-25.763498 26.319935-25.763498 7.720155 0 14.613596 3.314822 19.423941 8.571751l.794455-.794456c-4.825893-5.765481-12.077387-9.4241-20.218396-9.4241z" fill="#fff" opacity=".1"/><path d="m64.446864 36.687108-37.143181 37.143181c4.825894 5.765482 12.077387 9.424101 20.218396 9.424101 14.597283 0 26.348886-11.751603 26.348886-26.348886 0-8.141009-3.658619-15.392502-9.424101-20.218396z" opacity=".2"/><path d="m64.446864 35.040303-37.143181 37.143181c4.825894 5.765482 12.077387 9.424101 20.218396 9.424101 14.597283 0 26.348886-11.751604 26.348886-26.348886 0-8.141009-3.658619-15.392502-9.424101-20.218396z" fill="#ed6b21"/><path d="m64.446864 35.040303-37.143181 37.143181c.249478.298049.532226.565775.794455.85235l36.348726-36.348726c5.513016 4.614571 9.091613 11.449768 9.395153 19.156979.0043-.196601.02895-.387722.02895-.585388 0-8.141009-3.658618-15.392502-9.4241-20.218396z" fill="#fff" opacity=".2"/></g></svg>